<?xml version="1.0" encoding="iso-8859-1"?>
<!-- Generator: Adobe Illustrator 16.0.0, SVG Export Plug-In . SVG Version: 6.00 Build 0)  -->
<!DOCTYPE svg PUBLIC "-//W3C//DTD SVG 1.1//EN" "http://www.w3.org/Graphics/SVG/1.1/DTD/svg11.dtd">
<svg version="1.1" id="Layer_1" xmlns="http://www.w3.org/2000/svg" xmlns:xlink="http://www.w3.org/1999/xlink" x="0px" y="0px"
	 width="200px" height="108.286px" viewBox="0 0 200 108.286" style="enable-background:new 0 0 200 108.286;" xml:space="preserve"
	>
<g>
	<path style="fill:#FFFFFF;" d="M190.857,35.048c0-3.869-2.967-9.982-11.295-15.535c-9.594-6.396-23.729-10.473-42.014-12.116
		c-3.623-0.326-7.348-0.491-11.072-0.491c-9.348,0-18.778,1.04-26.556,2.927c-11.756,2.854-13.567,6.028-13.831,8.475
		c-0.117,1.079-0.066,4.666,5.396,5.938c-2.046,0.221-4.053,0.509-6.011,0.865c-2.619,0.476-6.18,1.743-9.806,3.982
		c-0.383-0.237-0.83-0.38-1.312-0.38h-24c-1.381,0-2.5,1.119-2.5,2.5s1.119,2.5,2.5,2.5h19.425
		c-3.024,2.986-5.735,6.818-7.522,11.668c-2.252-1.463-4.984-2.668-7.736-2.668h-0.002c-0.626,0-1.244,0.014-1.836,0.141
		c-3.551,0.76-5.986,4.587-6.356,10.026c-0.128,1.879,0.016,3.854,0.421,5.833H10.357c-1.381,0-2.5,1.119-2.5,2.5s1.119,2.5,2.5,2.5
		h38c0.014,0,0.026-0.004,0.04-0.004c2.299,4.949,6.54,9.406,13.1,11.778c5.934,2.146,11.55,2.414,16.982,2.68
		c9.462,0.463,16.983,0.827,24.243,10.772c0.449,2.936,0.734,5.959,0.644,6.929c-0.479,1.463-0.249,3.035,0.649,4.362
		c1.576,2.328,4.879,3.507,9.818,3.507c3.16,0,6.941-0.49,11.234-1.456c7.445-1.675,20.585-5.721,31.295-10.214
		c16.004-6.713,23.043-12.519,22.825-18.826c-0.157-4.555-3.273-7.498-7.938-7.498c-1.166,0-2.436,0.188-3.746,0.502
		c3.22-4.843,4.69-10.235,4.392-16.091C178.609,48.408,190.857,43.991,190.857,35.048z M167.524,47.048
		c5.333,30.666-43.667,36.666-43.667,36.666c0-11.334-11-14.334-11-14.334c10,4.334,9.667,17.668,9.667,17.668
		c0.329,0.041,0.685,0.061,1.065,0.061c8.895,0,31.268-10.729,31.268-10.729s10.479-6.636,16.393-6.636
		c2.256,0,3.849,0.966,3.941,3.636c0.333,9.667-37.667,22-51,25c-4.375,0.984-7.779,1.358-10.357,1.358
		c-5.281,0-7.091-1.571-6.643-2.69c0.666-1.667-0.667-9.668-0.667-9.668c-13-18.666-28-10-43.667-15.666s-14-24-9.333-25
		c0.325-0.07,0.659-0.103,0.999-0.103c4.521,0.001,10.001,5.769,10.001,5.769c3.333-20,21.667-23.333,21.667-23.333
		c5.226-0.95,10.422-1.333,15.422-1.333c19.553,0,36.059,5.87,39.244,6.667c1.307,0.327,3.039,0.618,4.852,0.618
		c3.734,0,7.802-1.237,9.148-5.951c2-7-5.666-9-5.666-9c-0.107-0.018-0.336-0.026-0.675-0.026c-4.168,0-24.95,1.255-40.524,1.255
		c-6.697,0-12.433-0.232-15.468-0.896c-9.354-2.046,9.229-9.475,33.952-9.475c3.469,0,7.064,0.146,10.715,0.475
		c40.85,3.672,49.666,19,49.666,23.667C186.857,43.381,167.524,47.048,167.524,47.048z M119.096,25.115
		c7.396-0.192,14.838-0.516,20.402-0.759c4.262-0.185,7.633-0.332,8.988-0.334c0.68,0.257,1.949,0.886,2.463,1.81
		c0.189,0.34,0.402,0.929,0.062,2.117c-0.262,0.913-0.871,3.05-5.303,3.05c-1.643,0-3.137-0.312-3.881-0.498
		c-0.358-0.09-1.079-0.305-1.914-0.554C136.242,28.852,128.662,26.591,119.096,25.115z"/>
	<circle style="fill:#FFFFFF;" cx="174.524" cy="30.714" r="2.5"/>
	<path style="fill:#FFFFFF;" d="M16.191,51.714h13.332c1.289,0,2.334-1.045,2.334-2.334v-0.332c0-1.289-1.045-2.334-2.334-2.334
		H16.191c-1.289,0-2.334,1.045-2.334,2.334v0.332C13.857,50.669,14.902,51.714,16.191,51.714z"/>
	<path style="fill:#FFFFFF;" d="M68.857,81.714h-35c-1.656,0-3,1.343-3,3s1.344,3,3,3h35c1.656,0,3-1.343,3-3
		S70.514,81.714,68.857,81.714z"/>
	<path style="fill:#FFFFFF;" d="M42.524,72.714c1.288,0,2.333-1.045,2.333-2.333v-0.334c0-1.288-1.045-2.333-2.333-2.333H38.19
		c-1.288,0-2.333,1.045-2.333,2.333v0.334c0,1.288,1.045,2.333,2.333,2.333H42.524z"/>
	<path style="fill:#FFFFFF;" d="M33.191,41.714h8.332c1.289,0,2.334-1.045,2.334-2.334v-0.332c0-1.289-1.045-2.334-2.334-2.334
		h-8.332c-1.289,0-2.334,1.045-2.334,2.334v0.332C30.857,40.669,31.902,41.714,33.191,41.714z"/>
	<path style="fill:#FFFFFF;" d="M45.191,22.714h12.332c1.289,0,2.334-1.045,2.334-2.333v-0.334c0-1.288-1.045-2.333-2.334-2.333
		H45.191c-1.289,0-2.334,1.045-2.334,2.333v0.334C42.857,21.669,43.902,22.714,45.191,22.714z"/>
</g>
</svg>
